<?xml version="1.0" standalone="no"?><!DOCTYPE svg PUBLIC "-//W3C//DTD SVG 1.1//EN" "http://www.w3.org/Graphics/SVG/1.1/DTD/svg11.dtd"><svg t="1745218875364" class="icon" viewBox="0 0 1024 1024" version="1.1" xmlns="http://www.w3.org/2000/svg" p-id="3797" xmlns:xlink="http://www.w3.org/1999/xlink" width="200" height="200"><path d="M256 0h512c141.38368 0 256 114.61632 256 256v512c0 141.38368-114.61632 256-256 256H256c-141.38368 0-256-114.61632-256-256V256C0 114.61632 114.61632 0 256 0z" fill="#FF1D2F" p-id="3798"></path><path d="M224.512 308.8384L194.56 788.0704l197.6832 119.808 431.3088-137.7792-47.9232-521.1648-161.7408-17.9712z" fill="#FFFFFF" p-id="3799"></path><path d="M350.3104 284.8768s0-143.7696 89.856-155.7504c89.856-11.9808 107.8272 167.7312 107.8272 167.7312l-29.952-23.9616s-17.9712-125.7984-77.8752-119.808c-53.97504 5.39648-59.904 137.7792-59.904 137.7792h-29.952v-5.9904z" fill="#FFFFFF" p-id="3800"></path><path d="M428.1856 278.8864s-5.9904-167.7312 83.8656-179.712c89.856-11.9808 113.8176 191.6928 113.8176 191.6928l-29.952-23.9616s-23.9616-149.76-83.8656-143.7696c-53.97504 5.39648-53.9136 161.7408-53.9136 161.7408h-29.952v-5.9904z" fill="#FFFFFF" p-id="3801"></path><path d="M344.32 362.24l-35.9424-20.9664V751.616L194.56 793.5488l113.8176-29.952 83.8656 149.76-41.9328-545.1264 371.4048-89.856z" fill="#FF1D2F" p-id="3802"></path><path d="M434.176 416.1536l47.9232 77.8752 41.9328-41.9328-71.8848-53.9136zM422.1952 476.0576l-23.9616 23.9616 41.9328 71.8848 35.9424-41.9328zM512.0512 517.9904l-107.8272 143.7696s47.9232 65.8944 53.9136 119.808l71.8848-59.904-65.8944-59.904 71.8848-131.7888-23.9616-11.9808z" fill="#FF1D2F" p-id="3803"></path><path d="M536.0128 416.1536l35.9424 53.9136h-53.9136l11.9808 35.9424h83.8656v53.9136h-77.8752v35.9424h77.8752v47.9232H506.0608l11.9808 35.9424h95.8464v95.8464h65.8944v-95.8464h89.856l23.9616-17.9712-47.9232-47.9232-17.9712 29.952h-47.9232v-47.9232h77.8752l17.9712-17.9712-35.9424-35.9424-23.9616 17.9712h-35.9424V506.0096h83.8656l17.9712-17.9712-35.9424-41.9328-23.9616 23.9616h-125.7984l35.9424-23.9616-65.8944-59.904z" fill="#FF1D2F" p-id="3804"></path><path d="M691.7632 386.2016s5.9904 11.9808-41.9328 71.8848l23.9616 17.9712h11.9808l71.8848-59.904-65.8944-29.952z" fill="#FF1D2F" p-id="3805"></path></svg>