<?xml version="1.0" standalone="no"?><!DOCTYPE svg PUBLIC "-//W3C//DTD SVG 1.1//EN" "http://www.w3.org/Graphics/SVG/1.1/DTD/svg11.dtd"><svg t="1745218927107" class="icon" viewBox="0 0 1024 1024" version="1.1" xmlns="http://www.w3.org/2000/svg" p-id="7150" xmlns:xlink="http://www.w3.org/1999/xlink" width="200" height="200"><path d="M83.2 0h857.6c44.8 0 83.2 38.4 83.2 83.2v857.6c0 44.8-38.4 83.2-83.2 83.2H83.2C38.4 1024 0 985.6 0 940.8V83.2C0 38.4 38.4 0 83.2 0z" fill="#FC0609" p-id="7151"></path><path d="M934.4 364.8c-32-102.4-140.8-147.2-243.2-108.8-32 12.8-64 12.8-96 0-51.2-19.2-108.8-19.2-160 0-44.8 12.8-76.8 12.8-115.2 0-121.6-44.8-243.2 38.4-243.2 166.4 0 83.2 57.6 153.6 140.8 172.8 38.4 6.4 64 25.6 89.6 57.6 108.8 134.4 294.4 134.4 403.2 0 25.6-25.6 51.2-44.8 89.6-57.6 108.8-25.6 166.4-128 134.4-230.4zM371.2 563.2c-19.2 0-32-12.8-32-32s12.8-32 32-32 32 12.8 32 32-12.8 25.6-32 32zM512 633.6c-32 0-57.6-25.6-57.6-57.6v-44.8-44.8c0-38.4 25.6-57.6 57.6-57.6s57.6 25.6 57.6 57.6v96c0 25.6-25.6 51.2-57.6 51.2z m134.4-70.4c-6.4 0-12.8-6.4-19.2-6.4-6.4-12.8-6.4-19.2-6.4-25.6 0-6.4 6.4-19.2 6.4-19.2 6.4-6.4 12.8-6.4 19.2-6.4 19.2 0 32 12.8 32 32 0 12.8-12.8 25.6-32 25.6z" fill="#FFFFFF" p-id="7152"></path></svg>